<svg xmlns="http://www.w3.org/2000/svg" xmlns:xlink="http://www.w3.org/1999/xlink" width="1650" zoomAndPan="magnify" viewBox="0 0 1237.5 225" height="300" preserveAspectRatio="xMidYMid meet" version="1.0"><defs><g/><clipPath id="b1cf7bbdd8"><path d="M 20.164062 31.933594 L 206.164062 31.933594 L 206.164062 170.683594 L 20.164062 170.683594 Z M 20.164062 31.933594 " clip-rule="nonzero"/></clipPath><clipPath id="0b5efc04de"><path d="M 57.910156 48.59375 L 243.910156 48.59375 L 243.910156 187.34375 L 57.910156 187.34375 Z M 57.910156 48.59375 " clip-rule="nonzero"/></clipPath></defs><g fill="#1a3c6c" fill-opacity="1"><g transform="translate(278.830692, 170.19468)"><g><path d="M 12.03125 0 L 12.03125 -138.390625 L 41.28125 -138.390625 L 41.28125 -24.125 L 100.609375 -24.125 L 100.609375 0 Z M 12.03125 0 "/></g></g></g><g fill="#1a3c6c" fill-opacity="1"><g transform="translate(381.476797, 170.19468)"><g><path d="M 11.484375 0 L 11.484375 -103.796875 L 40.265625 -103.796875 L 40.265625 0 Z M 25.953125 -117.171875 C 21.722656 -117.171875 18.070312 -118.597656 15 -121.453125 C 11.9375 -124.316406 10.40625 -127.753906 10.40625 -131.765625 C 10.40625 -135.773438 11.9375 -139.195312 15 -142.03125 C 18.070312 -144.875 21.722656 -146.296875 25.953125 -146.296875 C 30.234375 -146.296875 33.90625 -144.875 36.96875 -142.03125 C 40.03125 -139.195312 41.5625 -135.773438 41.5625 -131.765625 C 41.5625 -127.753906 40.03125 -124.316406 36.96875 -121.453125 C 33.90625 -118.597656 30.234375 -117.171875 25.953125 -117.171875 Z M 25.953125 -117.171875 "/></g></g></g><g fill="#1a3c6c" fill-opacity="1"><g transform="translate(427.906115, 170.19468)"><g><path d="M 40.265625 -60 L 40.265625 0 L 11.484375 0 L 11.484375 -103.796875 L 38.921875 -103.796875 L 38.921875 -85.484375 L 40.140625 -85.484375 C 42.484375 -91.515625 46.34375 -96.296875 51.71875 -99.828125 C 57.101562 -103.367188 63.648438 -105.140625 71.359375 -105.140625 C 82.171875 -105.140625 90.84375 -101.660156 97.375 -94.703125 C 103.90625 -87.742188 107.171875 -78.203125 107.171875 -66.078125 L 107.171875 0 L 78.390625 0 L 78.390625 -60.953125 C 78.429688 -67.304688 76.804688 -72.269531 73.515625 -75.84375 C 70.222656 -79.425781 65.695312 -81.21875 59.9375 -81.21875 C 54.125 -81.21875 49.40625 -79.359375 45.78125 -75.640625 C 42.15625 -71.929688 40.316406 -66.71875 40.265625 -60 Z M 40.265625 -60 "/></g></g></g><g fill="#1a3c6c" fill-opacity="1"><g transform="translate(540.89017, 170.19468)"><g><path d="M 58.25 40.40625 C 44.28125 40.40625 33.304688 37.65625 25.328125 32.15625 C 17.359375 26.664062 12.519531 20 10.8125 12.15625 L 37.4375 8.578125 C 38.601562 11.367188 40.882812 13.925781 44.28125 16.25 C 47.6875 18.570312 52.566406 19.734375 58.921875 19.734375 C 65.179688 19.734375 70.347656 18.242188 74.421875 15.265625 C 78.503906 12.296875 80.546875 7.410156 80.546875 0.609375 L 80.546875 -18.375 L 79.328125 -18.375 C 77.429688 -14.09375 74.097656 -10.207031 69.328125 -6.71875 C 64.554688 -3.226562 58.023438 -1.484375 49.734375 -1.484375 C 41.941406 -1.484375 34.859375 -3.304688 28.484375 -6.953125 C 22.109375 -10.609375 17.039062 -16.171875 13.28125 -23.640625 C 9.519531 -31.117188 7.640625 -40.601562 7.640625 -52.09375 C 7.640625 -63.894531 9.5625 -73.710938 13.40625 -81.546875 C 17.257812 -89.390625 22.375 -95.28125 28.75 -99.21875 C 35.125 -103.164062 42.097656 -105.140625 49.671875 -105.140625 C 55.472656 -105.140625 60.332031 -104.160156 64.25 -102.203125 C 68.175781 -100.242188 71.351562 -97.820312 73.78125 -94.9375 C 76.21875 -92.050781 78.066406 -89.191406 79.328125 -86.359375 L 80.40625 -86.359375 L 80.40625 -103.796875 L 109 -103.796875 L 109 1.015625 C 109 9.617188 106.820312 16.847656 102.46875 22.703125 C 98.125 28.554688 92.144531 32.96875 84.53125 35.9375 C 76.914062 38.914062 68.15625 40.40625 58.25 40.40625 Z M 58.859375 -23.109375 C 65.796875 -23.109375 71.164062 -25.675781 74.96875 -30.8125 C 78.78125 -35.945312 80.6875 -43.085938 80.6875 -52.234375 C 80.6875 -61.328125 78.789062 -68.597656 75 -74.046875 C 71.21875 -79.503906 65.835938 -82.234375 58.859375 -82.234375 C 51.734375 -82.234375 46.3125 -79.441406 42.59375 -73.859375 C 38.882812 -68.273438 37.03125 -61.066406 37.03125 -52.234375 C 37.03125 -43.265625 38.898438 -36.164062 42.640625 -30.9375 C 46.378906 -25.71875 51.785156 -23.109375 58.859375 -23.109375 Z M 58.859375 -23.109375 "/></g></g></g><g fill="#1a3c6c" fill-opacity="1"><g transform="translate(656.036398, 170.19468)"><g><path d="M 58.375 2.03125 C 47.882812 2.03125 38.820312 -0.207031 31.1875 -4.6875 C 23.550781 -9.175781 17.660156 -15.441406 13.515625 -23.484375 C 9.367188 -31.523438 7.296875 -40.859375 7.296875 -51.484375 C 7.296875 -62.210938 9.367188 -71.59375 13.515625 -79.625 C 17.660156 -87.664062 23.550781 -93.925781 31.1875 -98.40625 C 38.820312 -102.894531 47.882812 -105.140625 58.375 -105.140625 C 68.875 -105.140625 77.941406 -102.894531 85.578125 -98.40625 C 93.210938 -93.925781 99.101562 -87.664062 103.25 -79.625 C 107.394531 -71.59375 109.46875 -62.210938 109.46875 -51.484375 C 109.46875 -40.859375 107.394531 -31.523438 103.25 -23.484375 C 99.101562 -15.441406 93.210938 -9.175781 85.578125 -4.6875 C 77.941406 -0.207031 68.875 2.03125 58.375 2.03125 Z M 58.515625 -20.265625 C 65.628906 -20.265625 71.019531 -23.238281 74.6875 -29.1875 C 78.363281 -35.132812 80.203125 -42.632812 80.203125 -51.6875 C 80.203125 -60.75 78.363281 -68.265625 74.6875 -74.234375 C 71.019531 -80.203125 65.628906 -83.1875 58.515625 -83.1875 C 51.265625 -83.1875 45.789062 -80.203125 42.09375 -74.234375 C 38.40625 -68.265625 36.5625 -60.75 36.5625 -51.6875 C 36.5625 -42.632812 38.40625 -35.132812 42.09375 -29.1875 C 45.789062 -23.238281 51.265625 -20.265625 58.515625 -20.265625 Z M 58.515625 -20.265625 "/></g></g></g><g fill="#3aa3e3" fill-opacity="1"><g transform="translate(767.463927, 170.19468)"><g><path d="M 87.09375 -98.59375 C 86.550781 -104.039062 84.21875 -108.269531 80.09375 -111.28125 C 75.976562 -114.300781 70.429688 -115.8125 63.453125 -115.8125 C 56.285156 -115.8125 50.785156 -114.347656 46.953125 -111.421875 C 43.128906 -108.492188 41.21875 -104.800781 41.21875 -100.34375 C 41.125 -95.382812 43.25 -91.632812 47.59375 -89.09375 C 51.945312 -86.550781 57.117188 -84.582031 63.109375 -83.1875 L 75.546875 -80.203125 C 83.566406 -78.398438 90.695312 -75.785156 96.9375 -72.359375 C 103.175781 -68.941406 108.082031 -64.539062 111.65625 -59.15625 C 115.238281 -53.769531 117.03125 -47.226562 117.03125 -39.53125 C 116.988281 -26.875 112.25 -16.796875 102.8125 -9.296875 C 93.375 -1.796875 80.207031 1.953125 63.3125 1.953125 C 46.507812 1.953125 33.109375 -1.875 23.109375 -9.53125 C 13.109375 -17.1875 7.925781 -28.492188 7.5625 -43.453125 L 35.875 -43.453125 C 36.375 -36.515625 39.113281 -31.296875 44.09375 -27.796875 C 49.070312 -24.304688 55.363281 -22.5625 62.96875 -22.5625 C 70.40625 -22.5625 76.34375 -24.140625 80.78125 -27.296875 C 85.21875 -30.453125 87.457031 -34.550781 87.5 -39.59375 C 87.457031 -44.28125 85.410156 -47.882812 81.359375 -50.40625 C 77.304688 -52.925781 71.515625 -55.085938 63.984375 -56.890625 L 48.921875 -60.671875 C 37.253906 -63.472656 28.039062 -67.910156 21.28125 -73.984375 C 14.53125 -80.066406 11.175781 -88.203125 11.21875 -98.390625 C 11.175781 -106.765625 13.414062 -114.09375 17.9375 -120.375 C 22.46875 -126.65625 28.695312 -131.539062 36.625 -135.03125 C 44.550781 -138.53125 53.5625 -140.28125 63.65625 -140.28125 C 73.925781 -140.28125 82.898438 -138.519531 90.578125 -135 C 98.253906 -131.488281 104.234375 -126.601562 108.515625 -120.34375 C 112.796875 -114.082031 115.003906 -106.832031 115.140625 -98.59375 Z M 87.09375 -98.59375 "/></g></g></g><g fill="#3aa3e3" fill-opacity="1"><g transform="translate(886.731833, 170.19468)"><g><path d="M 28.25 40.40625 C 24.144531 40.40625 20.640625 40.054688 17.734375 39.359375 C 14.828125 38.660156 12.566406 37.953125 10.953125 37.234375 L 17.4375 14.9375 C 22.519531 16.46875 26.804688 16.867188 30.296875 16.140625 C 33.796875 15.421875 36.554688 12.695312 38.578125 7.96875 L 40.46875 2.96875 L 3.25 -103.796875 L 33.515625 -103.796875 L 55 -27.5625 L 56.078125 -27.5625 L 77.78125 -103.796875 L 108.25 -103.796875 L 67.703125 11.890625 C 64.773438 20.179688 60.101562 27.003906 53.6875 32.359375 C 47.269531 37.722656 38.789062 40.40625 28.25 40.40625 Z M 28.25 40.40625 "/></g></g></g><g fill="#3aa3e3" fill-opacity="1"><g transform="translate(992.8915, 170.19468)"><g><path d="M 40.265625 -60 L 40.265625 0 L 11.484375 0 L 11.484375 -103.796875 L 38.921875 -103.796875 L 38.921875 -85.484375 L 40.140625 -85.484375 C 42.484375 -91.515625 46.34375 -96.296875 51.71875 -99.828125 C 57.101562 -103.367188 63.648438 -105.140625 71.359375 -105.140625 C 82.171875 -105.140625 90.84375 -101.660156 97.375 -94.703125 C 103.90625 -87.742188 107.171875 -78.203125 107.171875 -66.078125 L 107.171875 0 L 78.390625 0 L 78.390625 -60.953125 C 78.429688 -67.304688 76.804688 -72.269531 73.515625 -75.84375 C 70.222656 -79.425781 65.695312 -81.21875 59.9375 -81.21875 C 54.125 -81.21875 49.40625 -79.359375 45.78125 -75.640625 C 42.15625 -71.929688 40.316406 -66.71875 40.265625 -60 Z M 40.265625 -60 "/></g></g></g><g fill="#3aa3e3" fill-opacity="1"><g transform="translate(1105.875555, 170.19468)"><g><path d="M 58.375 2.03125 C 47.75 2.03125 38.617188 -0.234375 30.984375 -4.765625 C 23.347656 -9.296875 17.488281 -15.59375 13.40625 -23.65625 C 9.332031 -31.71875 7.296875 -40.992188 7.296875 -51.484375 C 7.296875 -62.117188 9.351562 -71.457031 13.46875 -79.5 C 17.59375 -87.539062 23.460938 -93.820312 31.078125 -98.34375 C 38.691406 -102.875 47.75 -105.140625 58.25 -105.140625 C 67.300781 -105.140625 75.238281 -103.492188 82.0625 -100.203125 C 88.882812 -96.921875 94.265625 -92.304688 98.203125 -86.359375 C 102.148438 -80.410156 104.328125 -73.425781 104.734375 -65.40625 L 77.578125 -65.40625 C 76.804688 -70.59375 74.785156 -74.769531 71.515625 -77.9375 C 68.253906 -81.113281 63.988281 -82.703125 58.71875 -82.703125 C 52.050781 -82.703125 46.691406 -80.019531 42.640625 -74.65625 C 38.585938 -69.300781 36.5625 -61.710938 36.5625 -51.890625 C 36.5625 -41.984375 38.578125 -34.316406 42.609375 -28.890625 C 46.640625 -23.460938 52.007812 -20.75 58.71875 -20.75 C 63.675781 -20.75 67.84375 -22.242188 71.21875 -25.234375 C 74.59375 -28.234375 76.710938 -32.503906 77.578125 -38.046875 L 104.734375 -38.046875 C 104.285156 -30.117188 102.132812 -23.132812 98.28125 -17.09375 C 94.425781 -11.0625 89.117188 -6.363281 82.359375 -3 C 75.609375 0.351562 67.613281 2.03125 58.375 2.03125 Z M 58.375 2.03125 "/></g></g></g><g clip-path="url(#b1cf7bbdd8)"><path fill="#ffffff" d="M 195.765625 31.960938 L 30.5625 31.960938 C 24.832031 31.960938 20.164062 36.625 20.164062 42.34375 L 20.164062 125.90625 C 20.164062 131.628906 24.832031 136.289062 30.5625 136.289062 L 54.546875 136.289062 L 68.296875 169.976562 C 68.46875 170.359375 68.851562 170.65625 69.273438 170.65625 C 69.273438 170.65625 69.273438 170.65625 69.316406 170.65625 C 69.742188 170.65625 70.164062 170.359375 70.292969 169.933594 L 82.261719 136.289062 L 195.765625 136.289062 C 201.496094 136.289062 206.164062 131.628906 206.164062 125.90625 L 206.164062 42.386719 C 206.164062 36.625 201.496094 31.960938 195.765625 31.960938 Z M 204.042969 125.949219 C 204.042969 130.527344 200.304688 134.210938 195.765625 134.210938 L 81.5 134.210938 C 81.03125 134.210938 80.648438 134.507812 80.480469 134.933594 L 69.1875 166.671875 L 56.199219 134.890625 C 56.03125 134.507812 55.648438 134.210938 55.222656 134.210938 L 30.5625 134.210938 C 25.980469 134.210938 22.285156 130.484375 22.285156 125.949219 L 22.285156 42.386719 C 22.285156 37.808594 26.019531 34.125 30.5625 34.125 L 195.765625 34.125 C 200.347656 34.125 204.042969 37.851562 204.042969 42.386719 Z M 204.042969 125.949219 " fill-opacity="1" fill-rule="nonzero"/></g><path fill="#1a3c6c" d="M 204.042969 42.386719 L 204.042969 125.949219 C 204.042969 130.527344 200.304688 134.210938 195.765625 134.210938 L 81.5 134.210938 C 81.03125 134.210938 80.648438 134.507812 80.480469 134.933594 L 69.1875 166.671875 L 56.199219 134.890625 C 56.03125 134.507812 55.648438 134.210938 55.222656 134.210938 L 30.5625 134.210938 C 25.980469 134.210938 22.285156 130.484375 22.285156 125.949219 L 22.285156 42.386719 C 22.285156 37.808594 26.019531 34.125 30.5625 34.125 L 195.765625 34.125 C 200.347656 34.082031 204.042969 37.808594 204.042969 42.386719 Z M 204.042969 42.386719 " fill-opacity="1" fill-rule="nonzero"/><g clip-path="url(#0b5efc04de)"><path fill="#ffffff" d="M 233.511719 48.621094 L 68.308594 48.621094 C 62.578125 48.621094 57.910156 53.28125 57.910156 59.003906 L 57.910156 142.566406 C 57.910156 148.285156 62.578125 152.949219 68.308594 152.949219 L 92.292969 152.949219 L 106.042969 186.636719 C 106.214844 187.015625 106.597656 187.3125 107.019531 187.3125 C 107.019531 187.3125 107.019531 187.3125 107.0625 187.3125 C 107.488281 187.3125 107.914062 187.015625 108.039062 186.59375 L 120.007812 152.949219 L 233.511719 152.949219 C 239.242188 152.949219 243.910156 148.285156 243.910156 142.566406 L 243.910156 59.042969 C 243.910156 53.28125 239.242188 48.621094 233.511719 48.621094 Z M 241.789062 142.609375 C 241.789062 147.183594 238.054688 150.871094 233.511719 150.871094 L 119.246094 150.871094 C 118.777344 150.871094 118.398438 151.167969 118.226562 151.589844 L 106.9375 183.332031 L 93.949219 151.550781 C 93.777344 151.167969 93.394531 150.871094 92.972656 150.871094 L 68.308594 150.871094 C 63.726562 150.871094 60.03125 147.140625 60.03125 142.609375 L 60.03125 59.042969 C 60.03125 54.46875 63.769531 50.78125 68.308594 50.78125 L 233.511719 50.78125 C 238.09375 50.78125 241.789062 54.511719 241.789062 59.042969 Z M 241.789062 142.609375 " fill-opacity="1" fill-rule="nonzero"/></g><path fill="#3aa3e3" d="M 241.789062 59.042969 L 241.789062 142.609375 C 241.789062 147.183594 238.054688 150.871094 233.511719 150.871094 L 119.246094 150.871094 C 118.777344 150.871094 118.398438 151.167969 118.226562 151.589844 L 106.9375 183.332031 L 93.949219 151.550781 C 93.777344 151.167969 93.394531 150.871094 92.972656 150.871094 L 68.308594 150.871094 C 63.726562 150.871094 60.03125 147.140625 60.03125 142.609375 L 60.03125 59.042969 C 60.03125 54.46875 63.769531 50.78125 68.308594 50.78125 L 233.511719 50.78125 C 238.09375 50.738281 241.789062 54.46875 241.789062 59.042969 Z M 241.789062 59.042969 " fill-opacity="1" fill-rule="nonzero"/></svg>