<?xml version="1.0" standalone="no"?>
<!DOCTYPE svg PUBLIC "-//W3C//DTD SVG 20010904//EN"
 "http://www.w3.org/TR/2001/REC-SVG-20010904/DTD/svg10.dtd">
<svg version="1.0" xmlns="http://www.w3.org/2000/svg"
 width="2320.000000pt" height="2320.000000pt" viewBox="0 0 2320.000000 2320.000000"
 preserveAspectRatio="xMidYMid meet">
<metadata>
Created by potrace 1.14, written by Peter Selinger 2001-2017
</metadata>
<g transform="translate(0.000000,2320.000000) scale(0.100000,-0.100000)"
fill="#000000" stroke="none">
<path d="M3487 23194 c-1 -1 -48 -5 -104 -8 -56 -4 -110 -8 -120 -10 -10 -2
-44 -7 -77 -11 -32 -3 -70 -9 -85 -11 -325 -55 -583 -128 -847 -240 -136 -57
-376 -183 -504 -264 -104 -65 -345 -240 -395 -286 -11 -11 -38 -34 -60 -53
-52 -43 -205 -193 -271 -262 -144 -154 -351 -428 -428 -564 -9 -16 -30 -52
-46 -80 -218 -368 -396 -888 -444 -1295 -2 -19 -7 -51 -10 -70 -3 -19 -8 -55
-11 -80 -7 -63 -16 -130 -20 -160 -3 -13 -8 -72 -12 -130 -10 -139 -10 -16071
0 -16220 4 -63 12 -146 18 -185 5 -38 12 -88 14 -110 3 -22 8 -53 12 -70 4
-16 7 -37 8 -45 4 -29 16 -86 31 -150 9 -36 17 -74 19 -84 10 -44 59 -208 90
-296 145 -416 342 -772 616 -1114 61 -76 120 -149 132 -161 12 -12 56 -58 98
-101 415 -430 924 -751 1494 -944 203 -69 487 -135 670 -156 28 -3 61 -7 75
-9 14 -3 63 -8 110 -12 113 -11 16197 -10 16322 0 53 4 105 9 115 11 10 2 43
7 73 11 30 4 62 9 70 10 8 2 56 11 105 20 50 9 100 19 111 21 29 5 212 53 249
64 441 138 764 297 1125 554 47 33 90 65 96 71 6 5 28 24 50 40 21 17 54 44
73 60 20 17 49 41 66 55 66 56 286 281 366 375 355 415 601 877 757 1420 26
88 68 278 82 370 6 39 13 81 15 95 7 45 14 104 20 168 3 34 8 90 11 125 7 69
7 16049 0 16137 -6 87 -18 213 -21 231 -2 9 -6 40 -10 70 -9 78 -62 341 -87
429 -203 736 -602 1368 -1173 1860 -197 170 -375 294 -640 445 -152 87 -435
235 -449 235 -3 0 -29 11 -58 24 -137 62 -554 197 -580 186 -2 0 -25 6 -53 14
-27 9 -51 13 -53 11 -2 -2 -14 0 -27 5 -21 8 -190 34 -290 44 -27 3 -79 9
-115 12 -52 6 -16097 13 -16103 8z"/>
</g>
</svg>
